<svg width="24" height="24" viewBox="0 0 24 24" fill="none" xmlns="http://www.w3.org/2000/svg">
<path d="M16 22L15 18" stroke="black" stroke-width="2" stroke-linecap="round" stroke-linejoin="round"/>
<path d="M19 13.99C19.2652 13.99 19.5196 13.8846 19.7071 13.6971C19.8946 13.5096 20 13.2552 20 12.99V12C20 11.4696 19.7893 10.9609 19.4142 10.5858C19.0391 10.2107 18.5304 10 18 10H15C14.7348 10 14.4804 9.89464 14.2929 9.70711C14.1054 9.51957 14 9.26522 14 9V4C14 3.46957 13.7893 2.96086 13.4142 2.58579C13.0391 2.21071 12.5304 2 12 2C11.4696 2 10.9609 2.21071 10.5858 2.58579C10.2107 2.96086 10 3.46957 10 4V9C10 9.26522 9.89464 9.51957 9.70711 9.70711C9.51957 9.89464 9.26522 10 9 10H6C5.46957 10 4.96086 10.2107 4.58579 10.5858C4.21071 10.9609 4 11.4696 4 12V12.99C4 13.2552 4.10536 13.5096 4.29289 13.6971C4.48043 13.8846 4.73478 13.99 5 13.99" stroke="black" stroke-width="2" stroke-linecap="round" stroke-linejoin="round"/>
<path d="M5 14H19L20.973 20.767C21.0082 20.914 21.0097 21.0671 20.9772 21.2148C20.9447 21.3624 20.8792 21.5008 20.7855 21.6195C20.6919 21.7382 20.5725 21.8341 20.4365 21.9C20.3004 21.9659 20.1512 22.0001 20 22H4C3.84882 22.0001 3.69958 21.9659 3.56352 21.9C3.42746 21.8341 3.30812 21.7382 3.21446 21.6195C3.12081 21.5008 3.05528 21.3624 3.02281 21.2148C2.99034 21.0671 2.99177 20.914 3.027 20.767L5 14Z" stroke="black" stroke-width="2" stroke-linecap="round" stroke-linejoin="round"/>
<path d="M8 22L9 18" stroke="black" stroke-width="2" stroke-linecap="round" stroke-linejoin="round"/>
</svg>
